<mxfile host="app.diagrams.net" modified="2021-06-18T08:18:04.516Z" agent="5.0 (Macintosh; Intel Mac OS X 10_15_6) AppleWebKit/605.1.15 (KHTML, like Gecko) Version/14.0.3 Safari/605.1.15" etag="aw0m0GI5-WYoB6bTknPD" version="14.7.0" type="github">
  <diagram name="Page-1" id="13e1069c-82ec-6db2-03f1-153e76fe0fe0">
    <mxGraphModel dx="946" dy="543" grid="1" gridSize="10" guides="1" tooltips="1" connect="1" arrows="1" fold="1" page="1" pageScale="1" pageWidth="1100" pageHeight="850" background="none" math="0" shadow="0">
      <root>
        <mxCell id="0" />
        <mxCell id="1" parent="0" />
        <mxCell id="7baba1c4bc27f4b0-2" value="加固" style="shape=umlLifeline;perimeter=lifelinePerimeter;whiteSpace=wrap;html=1;container=1;collapsible=0;recursiveResize=0;outlineConnect=0;rounded=1;shadow=0;comic=0;labelBackgroundColor=none;strokeWidth=1;fontFamily=Verdana;fontSize=12;align=center;" parent="1" vertex="1">
          <mxGeometry x="240" y="80" width="100" height="640" as="geometry" />
        </mxCell>
        <mxCell id="7baba1c4bc27f4b0-3" value="SDK" style="shape=umlLifeline;perimeter=lifelinePerimeter;whiteSpace=wrap;html=1;container=1;collapsible=0;recursiveResize=0;outlineConnect=0;rounded=1;shadow=0;comic=0;labelBackgroundColor=none;strokeWidth=1;fontFamily=Verdana;fontSize=12;align=center;" parent="1" vertex="1">
          <mxGeometry x="400" y="80" width="100" height="640" as="geometry" />
        </mxCell>
        <mxCell id="7baba1c4bc27f4b0-13" value="" style="html=1;points=[];perimeter=orthogonalPerimeter;rounded=0;shadow=0;comic=0;labelBackgroundColor=none;strokeWidth=1;fontFamily=Verdana;fontSize=12;align=center;" parent="7baba1c4bc27f4b0-3" vertex="1">
          <mxGeometry x="45" y="100" width="10" height="440" as="geometry" />
        </mxCell>
        <mxCell id="7baba1c4bc27f4b0-4" value="CA" style="shape=umlLifeline;perimeter=lifelinePerimeter;whiteSpace=wrap;html=1;container=1;collapsible=0;recursiveResize=0;outlineConnect=0;rounded=1;shadow=0;comic=0;labelBackgroundColor=none;strokeWidth=1;fontFamily=Verdana;fontSize=12;align=center;" parent="1" vertex="1">
          <mxGeometry x="540" y="80" width="100" height="640" as="geometry" />
        </mxCell>
        <mxCell id="7baba1c4bc27f4b0-8" value="APP" style="shape=umlLifeline;perimeter=lifelinePerimeter;whiteSpace=wrap;html=1;container=1;collapsible=0;recursiveResize=0;outlineConnect=0;rounded=1;shadow=0;comic=0;labelBackgroundColor=none;strokeWidth=1;fontFamily=Verdana;fontSize=12;align=center;" parent="1" vertex="1">
          <mxGeometry x="100" y="80" width="100" height="640" as="geometry" />
        </mxCell>
        <mxCell id="7baba1c4bc27f4b0-9" value="" style="html=1;points=[];perimeter=orthogonalPerimeter;rounded=0;shadow=0;comic=0;labelBackgroundColor=none;strokeWidth=1;fontFamily=Verdana;fontSize=12;align=center;" parent="7baba1c4bc27f4b0-8" vertex="1">
          <mxGeometry x="45" y="100" width="10" height="500" as="geometry" />
        </mxCell>
        <mxCell id="Ai_lN4EMOiBAtk67L0lV-3" style="edgeStyle=orthogonalEdgeStyle;rounded=0;orthogonalLoop=1;jettySize=auto;html=1;" edge="1" parent="1" source="7baba1c4bc27f4b0-16">
          <mxGeometry relative="1" as="geometry">
            <mxPoint x="462" y="330" as="targetPoint" />
            <Array as="points">
              <mxPoint x="560" y="330" />
              <mxPoint x="560" y="330" />
            </Array>
          </mxGeometry>
        </mxCell>
        <mxCell id="Ai_lN4EMOiBAtk67L0lV-4" value="签发证书" style="edgeLabel;html=1;align=center;verticalAlign=middle;resizable=0;points=[];" vertex="1" connectable="0" parent="Ai_lN4EMOiBAtk67L0lV-3">
          <mxGeometry x="0.0078" y="-1" relative="1" as="geometry">
            <mxPoint y="-9" as="offset" />
          </mxGeometry>
        </mxCell>
        <mxCell id="7baba1c4bc27f4b0-16" value="" style="html=1;points=[];perimeter=orthogonalPerimeter;rounded=0;shadow=0;comic=0;labelBackgroundColor=none;strokeWidth=1;fontFamily=Verdana;fontSize=12;align=center;" parent="1" vertex="1">
          <mxGeometry x="585" y="220" width="10" height="180" as="geometry" />
        </mxCell>
        <mxCell id="7baba1c4bc27f4b0-17" value="申请发证" style="html=1;verticalAlign=bottom;endArrow=block;labelBackgroundColor=none;fontFamily=Verdana;fontSize=12;edgeStyle=elbowEdgeStyle;elbow=vertical;" parent="1" source="7baba1c4bc27f4b0-13" target="7baba1c4bc27f4b0-16" edge="1">
          <mxGeometry relative="1" as="geometry">
            <mxPoint x="510" y="220" as="sourcePoint" />
            <Array as="points">
              <mxPoint x="460" y="220" />
            </Array>
          </mxGeometry>
        </mxCell>
        <mxCell id="7baba1c4bc27f4b0-11" value="初始化账号" style="html=1;verticalAlign=bottom;endArrow=block;entryX=-0.1;entryY=0;labelBackgroundColor=none;fontFamily=Verdana;fontSize=12;edgeStyle=elbowEdgeStyle;elbow=vertical;entryDx=0;entryDy=0;entryPerimeter=0;" parent="1" source="7baba1c4bc27f4b0-9" target="7baba1c4bc27f4b0-13" edge="1">
          <mxGeometry relative="1" as="geometry">
            <mxPoint x="220" y="190" as="sourcePoint" />
            <mxPoint x="285" y="180" as="targetPoint" />
          </mxGeometry>
        </mxCell>
        <mxCell id="7baba1c4bc27f4b0-34" value="" style="html=1;points=[];perimeter=orthogonalPerimeter;rounded=0;shadow=0;comic=0;labelBackgroundColor=none;strokeWidth=1;fontFamily=Verdana;fontSize=12;align=center;" parent="1" vertex="1">
          <mxGeometry x="590" y="237.9" width="10" height="70" as="geometry" />
        </mxCell>
        <mxCell id="7baba1c4bc27f4b0-35" value="身份校验" style="html=1;verticalAlign=bottom;endArrow=block;labelBackgroundColor=none;fontFamily=Verdana;fontSize=12;elbow=vertical;edgeStyle=orthogonalEdgeStyle;curved=1;entryX=1;entryY=0.286;entryPerimeter=0;exitX=1.038;exitY=0.345;exitPerimeter=0;" parent="1" target="7baba1c4bc27f4b0-34" edge="1">
          <mxGeometry relative="1" as="geometry">
            <mxPoint x="595.3800000000001" y="220.00000000000003" as="sourcePoint" />
            <mxPoint x="595" y="167.9" as="targetPoint" />
            <Array as="points">
              <mxPoint x="650" y="219.9" />
              <mxPoint x="650" y="257.9" />
            </Array>
          </mxGeometry>
        </mxCell>
        <mxCell id="Ai_lN4EMOiBAtk67L0lV-1" value="发证" style="html=1;verticalAlign=bottom;endArrow=block;labelBackgroundColor=none;fontFamily=Verdana;fontSize=12;elbow=vertical;edgeStyle=orthogonalEdgeStyle;curved=1;entryX=1;entryY=0.286;entryPerimeter=0;" edge="1" parent="1">
          <mxGeometry relative="1" as="geometry">
            <mxPoint x="600" y="291" as="sourcePoint" />
            <mxPoint x="594.62" y="328.96" as="targetPoint" />
            <Array as="points">
              <mxPoint x="644.62" y="290.94" />
              <mxPoint x="644.62" y="328.94" />
            </Array>
          </mxGeometry>
        </mxCell>
        <mxCell id="Ai_lN4EMOiBAtk67L0lV-5" value="" style="html=1;points=[];perimeter=orthogonalPerimeter;rounded=0;shadow=0;comic=0;labelBackgroundColor=none;strokeWidth=1;fontFamily=Verdana;fontSize=12;align=center;" vertex="1" parent="1">
          <mxGeometry x="450" y="310" width="10" height="70" as="geometry" />
        </mxCell>
        <mxCell id="Ai_lN4EMOiBAtk67L0lV-6" value="安装证书" style="html=1;verticalAlign=bottom;endArrow=block;labelBackgroundColor=none;fontFamily=Verdana;fontSize=12;elbow=vertical;edgeStyle=orthogonalEdgeStyle;curved=1;entryX=1;entryY=0.286;entryPerimeter=0;" edge="1" parent="1">
          <mxGeometry relative="1" as="geometry">
            <mxPoint x="459.38" y="351" as="sourcePoint" />
            <mxPoint x="453.9999999999999" y="388.96000000000004" as="targetPoint" />
            <Array as="points">
              <mxPoint x="504" y="350.94" />
              <mxPoint x="504" y="388.94" />
            </Array>
          </mxGeometry>
        </mxCell>
        <mxCell id="Ai_lN4EMOiBAtk67L0lV-8" style="edgeStyle=orthogonalEdgeStyle;rounded=0;orthogonalLoop=1;jettySize=auto;html=1;" edge="1" parent="1" source="7baba1c4bc27f4b0-13">
          <mxGeometry relative="1" as="geometry">
            <mxPoint x="156" y="390" as="targetPoint" />
            <Array as="points">
              <mxPoint x="370" y="389" />
              <mxPoint x="370" y="389" />
            </Array>
          </mxGeometry>
        </mxCell>
        <mxCell id="Ai_lN4EMOiBAtk67L0lV-9" value="账号初始化成功" style="edgeLabel;html=1;align=center;verticalAlign=middle;resizable=0;points=[];" vertex="1" connectable="0" parent="Ai_lN4EMOiBAtk67L0lV-8">
          <mxGeometry x="0.0381" y="-2" relative="1" as="geometry">
            <mxPoint x="5" y="-7" as="offset" />
          </mxGeometry>
        </mxCell>
        <mxCell id="Ai_lN4EMOiBAtk67L0lV-10" value="" style="html=1;points=[];perimeter=orthogonalPerimeter;rounded=0;shadow=0;comic=0;labelBackgroundColor=none;strokeWidth=1;fontFamily=Verdana;fontSize=12;align=center;" vertex="1" parent="1">
          <mxGeometry x="285" y="410" width="10" height="130" as="geometry" />
        </mxCell>
        <mxCell id="Ai_lN4EMOiBAtk67L0lV-11" style="edgeStyle=orthogonalEdgeStyle;rounded=0;orthogonalLoop=1;jettySize=auto;html=1;" edge="1" parent="1" source="7baba1c4bc27f4b0-9">
          <mxGeometry relative="1" as="geometry">
            <mxPoint x="282" y="429" as="targetPoint" />
            <Array as="points">
              <mxPoint x="190" y="429" />
              <mxPoint x="190" y="429" />
            </Array>
          </mxGeometry>
        </mxCell>
        <mxCell id="Ai_lN4EMOiBAtk67L0lV-12" value="初始化加固(创建密钥)" style="edgeLabel;html=1;align=center;verticalAlign=middle;resizable=0;points=[];" vertex="1" connectable="0" parent="Ai_lN4EMOiBAtk67L0lV-11">
          <mxGeometry x="0.0387" y="3" relative="1" as="geometry">
            <mxPoint x="-7" y="-6" as="offset" />
          </mxGeometry>
        </mxCell>
        <mxCell id="Ai_lN4EMOiBAtk67L0lV-15" value="" style="html=1;points=[];perimeter=orthogonalPerimeter;rounded=0;shadow=0;comic=0;labelBackgroundColor=none;strokeWidth=1;fontFamily=Verdana;fontSize=12;align=center;" vertex="1" parent="1">
          <mxGeometry x="450" y="430" width="10" height="70" as="geometry" />
        </mxCell>
        <mxCell id="Ai_lN4EMOiBAtk67L0lV-16" value="加密密钥保存" style="html=1;verticalAlign=bottom;endArrow=block;labelBackgroundColor=none;fontFamily=Verdana;fontSize=12;elbow=vertical;edgeStyle=orthogonalEdgeStyle;curved=1;entryX=1;entryY=0.286;entryPerimeter=0;" edge="1" parent="1">
          <mxGeometry relative="1" as="geometry">
            <mxPoint x="460.3800000000001" y="474" as="sourcePoint" />
            <mxPoint x="455" y="511.96000000000004" as="targetPoint" />
            <Array as="points">
              <mxPoint x="505" y="473.94" />
              <mxPoint x="505" y="511.94000000000005" />
            </Array>
          </mxGeometry>
        </mxCell>
        <mxCell id="Ai_lN4EMOiBAtk67L0lV-17" value="" style="html=1;points=[];perimeter=orthogonalPerimeter;rounded=0;shadow=0;comic=0;labelBackgroundColor=none;strokeWidth=1;fontFamily=Verdana;fontSize=12;align=center;" vertex="1" parent="1">
          <mxGeometry x="290" y="430" width="10" height="70" as="geometry" />
        </mxCell>
        <mxCell id="Ai_lN4EMOiBAtk67L0lV-19" value="加密文件、数据" style="html=1;verticalAlign=bottom;endArrow=block;labelBackgroundColor=none;fontFamily=Verdana;fontSize=12;elbow=vertical;edgeStyle=orthogonalEdgeStyle;curved=1;entryX=1;entryY=0.286;entryPerimeter=0;" edge="1" parent="1">
          <mxGeometry relative="1" as="geometry">
            <mxPoint x="300.3800000000001" y="476" as="sourcePoint" />
            <mxPoint x="295" y="513.96" as="targetPoint" />
            <Array as="points">
              <mxPoint x="345" y="475.94000000000005" />
              <mxPoint x="345" y="513.94" />
            </Array>
          </mxGeometry>
        </mxCell>
        <mxCell id="Ai_lN4EMOiBAtk67L0lV-26" style="edgeStyle=orthogonalEdgeStyle;rounded=0;orthogonalLoop=1;jettySize=auto;html=1;" edge="1" parent="1">
          <mxGeometry relative="1" as="geometry">
            <mxPoint x="290" y="430.02" as="sourcePoint" />
            <mxPoint x="440" y="430" as="targetPoint" />
            <Array as="points">
              <mxPoint x="325" y="430.02" />
              <mxPoint x="325" y="430.02" />
            </Array>
          </mxGeometry>
        </mxCell>
        <mxCell id="Ai_lN4EMOiBAtk67L0lV-27" value="密钥保护" style="edgeLabel;html=1;align=center;verticalAlign=middle;resizable=0;points=[];" vertex="1" connectable="0" parent="Ai_lN4EMOiBAtk67L0lV-26">
          <mxGeometry x="0.0387" y="3" relative="1" as="geometry">
            <mxPoint y="-6" as="offset" />
          </mxGeometry>
        </mxCell>
        <mxCell id="Ai_lN4EMOiBAtk67L0lV-28" style="edgeStyle=orthogonalEdgeStyle;rounded=0;orthogonalLoop=1;jettySize=auto;html=1;entryX=-0.1;entryY=0.864;entryDx=0;entryDy=0;entryPerimeter=0;" edge="1" parent="1" target="7baba1c4bc27f4b0-13">
          <mxGeometry relative="1" as="geometry">
            <mxPoint x="158" y="560" as="sourcePoint" />
            <mxPoint x="285" y="560" as="targetPoint" />
            <Array as="points" />
          </mxGeometry>
        </mxCell>
        <mxCell id="Ai_lN4EMOiBAtk67L0lV-29" value="获取密钥" style="edgeLabel;html=1;align=center;verticalAlign=middle;resizable=0;points=[];" vertex="1" connectable="0" parent="Ai_lN4EMOiBAtk67L0lV-28">
          <mxGeometry x="0.0387" y="3" relative="1" as="geometry">
            <mxPoint y="-6" as="offset" />
          </mxGeometry>
        </mxCell>
        <mxCell id="Ai_lN4EMOiBAtk67L0lV-30" style="edgeStyle=orthogonalEdgeStyle;rounded=0;orthogonalLoop=1;jettySize=auto;html=1;entryX=1.1;entryY=0.475;entryDx=0;entryDy=0;entryPerimeter=0;" edge="1" parent="1">
          <mxGeometry relative="1" as="geometry">
            <mxPoint x="445.5" y="590" as="sourcePoint" />
            <mxPoint x="156.5" y="590" as="targetPoint" />
            <Array as="points">
              <mxPoint x="370.5" y="590" />
              <mxPoint x="370.5" y="590" />
            </Array>
          </mxGeometry>
        </mxCell>
        <mxCell id="Ai_lN4EMOiBAtk67L0lV-31" value="返回密钥" style="edgeLabel;html=1;align=center;verticalAlign=middle;resizable=0;points=[];" vertex="1" connectable="0" parent="Ai_lN4EMOiBAtk67L0lV-30">
          <mxGeometry x="0.0381" y="-2" relative="1" as="geometry">
            <mxPoint x="5" y="-7" as="offset" />
          </mxGeometry>
        </mxCell>
        <mxCell id="Ai_lN4EMOiBAtk67L0lV-32" value="" style="html=1;points=[];perimeter=orthogonalPerimeter;rounded=0;shadow=0;comic=0;labelBackgroundColor=none;strokeWidth=1;fontFamily=Verdana;fontSize=12;align=center;" vertex="1" parent="1">
          <mxGeometry x="285" y="610" width="10" height="70" as="geometry" />
        </mxCell>
        <mxCell id="Ai_lN4EMOiBAtk67L0lV-33" style="edgeStyle=orthogonalEdgeStyle;rounded=0;orthogonalLoop=1;jettySize=auto;html=1;" edge="1" parent="1">
          <mxGeometry relative="1" as="geometry">
            <mxPoint x="156" y="624" as="sourcePoint" />
            <mxPoint x="283" y="624" as="targetPoint" />
            <Array as="points">
              <mxPoint x="191" y="624" />
              <mxPoint x="191" y="624" />
            </Array>
          </mxGeometry>
        </mxCell>
        <mxCell id="Ai_lN4EMOiBAtk67L0lV-34" value="初始化加固" style="edgeLabel;html=1;align=center;verticalAlign=middle;resizable=0;points=[];" vertex="1" connectable="0" parent="Ai_lN4EMOiBAtk67L0lV-33">
          <mxGeometry x="0.0387" y="3" relative="1" as="geometry">
            <mxPoint y="-6" as="offset" />
          </mxGeometry>
        </mxCell>
        <mxCell id="Ai_lN4EMOiBAtk67L0lV-35" value="" style="html=1;points=[];perimeter=orthogonalPerimeter;rounded=0;shadow=0;comic=0;labelBackgroundColor=none;strokeWidth=1;fontFamily=Verdana;fontSize=12;align=center;" vertex="1" parent="1">
          <mxGeometry x="290" y="630" width="10" height="30" as="geometry" />
        </mxCell>
        <mxCell id="Ai_lN4EMOiBAtk67L0lV-36" value="加密文件、数据" style="html=1;verticalAlign=bottom;endArrow=block;labelBackgroundColor=none;fontFamily=Verdana;fontSize=12;elbow=vertical;edgeStyle=orthogonalEdgeStyle;curved=1;entryX=1;entryY=0.286;entryPerimeter=0;" edge="1" parent="1">
          <mxGeometry relative="1" as="geometry">
            <mxPoint x="300.3800000000001" y="638" as="sourcePoint" />
            <mxPoint x="295" y="675.96" as="targetPoint" />
            <Array as="points">
              <mxPoint x="345" y="637.94" />
              <mxPoint x="345" y="675.94" />
            </Array>
          </mxGeometry>
        </mxCell>
      </root>
    </mxGraphModel>
  </diagram>
</mxfile>
